<?xml version="1.0" encoding="UTF-8"?>
<svg id="Layer_1" data-name="Layer 1" xmlns="http://www.w3.org/2000/svg" viewBox="0 0 300 58">
  <defs>
    <style>
      .cls-1 {
        fill: #fff;
      }
    </style>
  </defs>
  <g>
    <path class="cls-1" d="m38.2,5.4c-13.04,0-23.6,10.57-23.6,23.6s10.57,23.6,23.6,23.6,23.6-10.57,23.6-23.6S51.24,5.4,38.2,5.4Zm0,45.16c-11.89,0-21.56-9.67-21.56-21.56S26.31,7.44,38.2,7.44s21.56,9.67,21.56,21.56-9.67,21.56-21.56,21.56Z"/>
    <polygon class="cls-1" points="46.14 17.57 42.8 17.57 34.14 28.83 34.14 17.57 31.3 17.57 31.3 40.69 34.14 40.69 34.14 29.4 43.42 40.69 47.04 40.69 37.31 29 46.14 17.57"/>
  </g>
  <g>
    <path class="cls-1" d="m276.52,28.5h4.89v7.94c-1.34.84-3.01,1.27-4.68,1.27-3.78,0-6.39-2.4-6.39-6.58v-4.18c0-3.99,2.51-6.66,6.43-6.66,1.46,0,2.92.36,4.39,1.17l-.5,1.63c-1.07-.69-2.42-1.09-3.7-1.09-2.65,0-4.74,1.59-4.74,4.97v4.22c0,3.13,1.9,4.8,4.53,4.8,1.04,0,2.09-.25,2.92-.81v-5.1h-3.15v-1.59Z"/>
    <path class="cls-1" d="m214.81,28.58c1.63-.48,2.51-1.8,2.51-3.74v-.36c0-2.63-1.5-3.95-4.43-3.95h-5.2v16.94h5.37c2.84,0,4.68-1.53,4.68-4.47v-.48c0-2.15-1.04-3.53-2.92-3.95Zm-5.33-6.37h3.28c1.82,0,2.78.88,2.78,2.59v.52c0,1.61-1.04,2.51-2.9,2.51h-3.16v-5.62Zm6.44,10.68c0,1.8-.98,2.9-2.86,2.9h-3.58v-6.25h3.51c1.86,0,2.92.98,2.92,2.69v.65Z"/>
    <polygon class="cls-1" points="173.4 37.48 173.4 35.77 166.8 35.77 166.8 29.56 172.53 29.56 172.53 27.87 166.8 27.87 166.8 22.23 173.32 22.23 173.32 20.54 164.99 20.54 164.99 37.48 173.4 37.48"/>
    <polygon class="cls-1" points="237.83 37.48 237.83 35.77 231.23 35.77 231.23 29.56 236.95 29.56 236.95 27.87 231.23 27.87 231.23 22.23 237.75 22.23 237.75 20.54 229.41 20.54 229.41 37.48 237.83 37.48"/>
    <polygon class="cls-1" points="151.16 34.91 144.49 20.54 141.82 20.54 141.82 37.48 143.64 37.48 143.64 23 150.31 37.48 152.98 37.48 152.98 20.54 151.16 20.54 151.16 34.91"/>
    <polygon class="cls-1" points="193.6 34.91 186.93 20.54 184.25 20.54 184.25 37.48 186.07 37.48 186.07 23 192.74 37.48 195.41 37.48 195.41 20.54 193.6 20.54 193.6 34.91"/>
    <path class="cls-1" d="m124.44,20.29c-3.7,0-6.27,2.44-6.27,6.6v4.24c0,4.12,2.53,6.58,6.27,6.58s6.25-2.42,6.25-6.58v-4.24c0-4.14-2.53-6.6-6.25-6.6Zm4.39,10.9c0,2.92-1.73,4.8-4.39,4.8s-4.41-1.86-4.41-4.8v-4.39c0-2.95,1.73-4.8,4.41-4.8s4.39,1.84,4.39,4.8v4.39Z"/>
    <polygon class="cls-1" points="86.51 20.54 84.38 20.54 77.7 28.79 77.7 20.54 75.88 20.54 75.88 37.48 77.7 37.48 77.7 29.21 84.93 37.48 87.25 37.48 79.73 28.92 86.51 20.54"/>
    <path class="cls-1" d="m103.57,30.35c.13-.03.26-.06.4-.09,2.17-.58,3.09-2.17,3.09-4.55v-.52c0-2.82-1.25-4.64-5.2-4.64h-5.39v16.94h1.82v-6.98h3.35l3.7,6.98h1.96l-3.73-7.13Zm-5.28-1.54v-6.58h3.53c2.17,0,3.41.65,3.41,2.95v.65c0,2.24-1.09,2.99-3.41,2.99h-3.53Z"/>
    <path class="cls-1" d="m255.93,30.35c.13-.03.26-.06.4-.09,2.17-.58,3.09-2.17,3.09-4.55v-.52c0-2.82-1.25-4.64-5.2-4.64h-5.39v16.94h1.82v-6.98h3.35l3.7,6.98h1.96l-3.73-7.13Zm-5.28-1.54v-6.58h3.53c2.17,0,3.41.65,3.41,2.95v.65c0,2.24-1.09,2.99-3.41,2.99h-3.53Z"/>
  </g>
</svg>